<?xml version="1.0" encoding="UTF-8" standalone="no"?>
<!DOCTYPE svg PUBLIC "-//W3C//DTD SVG 1.1//EN" "http://www.w3.org/Graphics/SVG/1.1/DTD/svg11.dtd">
<svg width="100%" height="100%" viewBox="0 0 564 562" version="1.1" xmlns="http://www.w3.org/2000/svg" xmlns:xlink="http://www.w3.org/1999/xlink" xml:space="preserve" xmlns:serif="http://www.serif.com/" style="fill-rule:evenodd;clip-rule:evenodd;stroke-linejoin:round;stroke-miterlimit:2;">
    <g id="Background">
        <path d="M13.5,0L563.999,0C565.114,1.612 563.999,1.844 563.999,24.5L563.999,561.999C561.851,563.156 561.661,561.999 533.5,561.999L0,561.999C-1.399,560.345 0,557.666 0,555.5L0,0C0.951,-0.512 0.964,0 13.5,0Z" style="fill:rgb(253,253,253);fill-opacity:0.11;"/>
        <path d="M10.035,389.5C9.36,370.157 10.041,191.211 10.046,170.5C10.061,116.249 5.614,84.056 38.399,47.412C68.052,14.268 91.217,12.055 113.479,8.314C120.058,7.209 416.182,7.987 442.504,8.057C494.956,8.194 547.497,40.564 557.568,110.49C559.011,120.511 558.203,291.738 558.128,307.498C557.435,454.329 559.496,454.887 552.621,475.542C547.031,492.338 527.4,543.802 459.533,554.737C450.97,556.117 450.954,555.947 234.5,555.947C112.67,555.947 112.482,556.415 97.448,552.755C60.853,543.846 33.357,515.766 22.985,494.27C8.243,463.719 10.045,452.841 10.035,389.5ZM424.501,25.965C442.63,26.563 442.651,25.368 460.554,28.163C504.484,35.023 527.396,71.349 533.533,89.488C537.453,101.075 539.385,100.982 539.512,144.5C540.289,410.645 539.894,422.342 539.077,446.487C538.922,451.073 537.988,478.713 519.297,500.331C517.944,501.896 491.73,538.168 440.496,537.892C425.94,537.813 130.036,537.87 128.499,537.849C69.513,537.053 32.228,496.009 28.797,446.478C27.413,426.488 28.203,153.018 28.277,127.5C28.503,49 93.724,30.061 106.568,27.933C126.168,24.684 325.705,26.951 424.501,25.965Z" style="fill:rgb(14,34,56);fill-opacity:1;"/>
        <path d="M424.501,25.965C442.63,26.563 442.651,25.368 460.554,28.163C504.484,35.023 527.396,71.349 533.533,89.488C537.453,101.075 539.385,100.982 539.512,144.5C540.289,410.645 539.894,422.342 539.077,446.487C538.922,451.073 537.988,478.713 519.297,500.331C517.944,501.896 491.73,538.168 440.496,537.892C425.94,537.813 130.036,537.87 128.499,537.849C69.513,537.053 32.228,496.009 28.797,446.478C27.413,426.488 28.203,153.018 28.277,127.5C28.503,49 93.724,30.061 106.568,27.933C126.168,24.684 325.705,26.951 424.501,25.965Z" style="fill:rgb(242,244,237);fill-opacity:0.42;"/>
        <path d="M286.499,135.042C316.705,136.114 334.928,157.315 340.192,179.583C342.086,187.592 344.119,284.561 339.147,301.389C320.323,365.098 232.948,348.347 226.983,293.466C224.615,271.675 226.063,202.411 226.229,194.495C226.988,158.215 250.499,134.775 286.499,135.042ZM314.5,222.036C294.513,221.691 299.466,235.527 308.585,237.102C317.965,238.722 325.784,235.613 326.077,241.527C326.263,245.285 327.383,251.924 322.472,252.158C321.85,252.187 296.888,249.546 301.425,262.528C304.409,271.067 324.688,265.885 325.893,269.344C326.12,269.996 327.031,287.826 324.11,297.385C310.908,340.576 242.142,338.487 241.725,279.5C241.686,274.014 240.729,268.085 245.529,267.889C246.936,267.831 271.249,270.647 266.765,257.405C263.733,248.45 243.182,255.375 242.138,249.595C240.134,238.494 243.614,238 244.563,237.865C244.793,237.833 272.845,240.179 266.579,226.459C262.862,218.321 242.923,225.207 242.036,219.565C240.392,209.107 242.766,208.23 243.649,207.903C246.164,206.973 272.293,210.137 266.658,196.428C263.107,187.789 243.067,195.229 242.258,188.525C240.067,170.366 276.778,129.059 313.336,162.675C324.094,172.568 327.912,189.388 324.303,191.111C321.472,192.462 297.605,188.508 301.212,201.58C303.752,210.781 324.804,205.138 325.788,209.401C328.571,221.457 323.597,221.845 322.565,221.925C321.922,221.975 321.968,221.933 314.5,222.036Z" style="fill:rgb(15,34,55);fill-opacity:1;"/>
        <path d="M314.5,222.036C294.513,221.691 299.466,235.527 308.585,237.102C317.965,238.722 325.784,235.613 326.077,241.527C326.263,245.285 327.383,251.924 322.472,252.158C321.85,252.187 296.888,249.546 301.425,262.528C304.409,271.067 324.688,265.885 325.893,269.344C326.12,269.996 327.031,287.826 324.11,297.385C310.908,340.576 242.142,338.487 241.725,279.5C241.686,274.014 240.729,268.085 245.529,267.889C246.936,267.831 271.249,270.647 266.765,257.405C263.733,248.45 243.182,255.375 242.138,249.595C240.134,238.494 243.614,238 244.563,237.865C244.793,237.833 272.845,240.179 266.579,226.459C262.862,218.321 242.923,225.207 242.036,219.565C240.392,209.107 242.766,208.23 243.649,207.903C246.164,206.973 272.293,210.137 266.658,196.428C263.107,187.789 243.067,195.229 242.258,188.525C240.067,170.366 276.778,129.059 313.336,162.675C324.094,172.568 327.912,189.388 324.303,191.111C321.472,192.462 297.605,188.508 301.212,201.58C303.752,210.781 324.804,205.138 325.788,209.401C328.571,221.457 323.597,221.845 322.565,221.925C321.922,221.975 321.968,221.933 314.5,222.036Z" style="fill:rgb(243,242,232);fill-opacity:0.61;"/>
        <path d="M195.039,253.482C195.094,252.685 195.56,245.91 199.524,244.568C213.829,239.724 210.41,264.3 210.719,282.493C211.943,354.698 285.181,372.152 321.814,347.955C362.653,320.978 357.177,289.158 357.386,255.5C357.47,241.94 366.979,243.865 368.414,244.678C374.365,248.047 373.528,255.39 373.554,259.5C373.684,280.037 377.743,321.064 343.459,351.453C315.303,376.411 292.884,369.927 291.931,376.531C291.818,377.316 291.725,408.761 291.88,410.466C292.722,419.747 334.907,405.185 334.689,421.502C334.563,430.924 321.484,429.339 317.499,429.368C238.216,429.938 235.867,430.196 233.813,424.396C228.598,409.671 259.048,413.924 273.494,413.449C276.375,413.354 276.704,411.878 276.117,377.51C275.982,369.577 257.799,375.359 235.747,360.154C189.304,328.131 193.382,279.439 195.039,253.482Z" style="fill:rgb(15,34,55);fill-opacity:1;"/>
        <path d="M54.121,89.726C53.895,89.786 51.357,90.461 51.197,89.668C50.453,85.969 52.775,87.723 56.525,88.137C59.156,88.428 60.249,81.384 60.109,80.58C59.185,75.262 62.718,77.61 65.473,77.227C67.704,76.917 67.954,77.28 68.335,79.542C68.606,81.152 73.976,83.442 72.34,85.393C67.371,91.32 67.049,91.021 62.037,99.21C59.909,102.688 51.949,107.807 52.472,100.499C52.883,94.761 56.707,94.826 54.121,89.726Z" style="fill:rgb(234,242,242);fill-opacity:0.64;"/>
    </g>
</svg>
