<?xml version="1.0" encoding="UTF-8" standalone="no"?>
<!DOCTYPE svg PUBLIC "-//W3C//DTD SVG 1.1//EN" "http://www.w3.org/Graphics/SVG/1.1/DTD/svg11.dtd">
<svg width="100%" height="100%" viewBox="0 0 668 655" version="1.1" xmlns="http://www.w3.org/2000/svg" xmlns:xlink="http://www.w3.org/1999/xlink" xml:space="preserve" xmlns:serif="http://www.serif.com/" style="fill-rule:evenodd;clip-rule:evenodd;stroke-linejoin:round;stroke-miterlimit:2;">
    <g id="Background" transform="matrix(1,0,0,1,-176,-173)">
        <path d="M1.5,0L1023.999,0C1025.047,2.726 1023.999,2.844 1023.999,36.5L1023.999,1023.999C1021.851,1025.156 1021.661,1023.999 993.5,1023.999L0,1023.999C-1.027,1022.092 0,1019.666 0,1017.5L0,0C0.197,-0.46 1.303,0.46 1.5,0Z" style="fill:rgb(254,253,253);"/>
        <path d="M775.423,185.853C793.234,191.267 816.324,199.583 831.853,233.341C838.866,248.585 837.444,251.879 837.577,338.5C837.627,370.977 838.185,732.349 837.235,744.465C834.465,779.808 804.021,816.174 754.5,816.291C714.738,816.385 274.179,817.425 257.476,815.714C236.166,813.53 187.172,792.615 186.375,737.502C186.353,736.016 186.278,258.878 186.463,257.496C188.107,245.203 191.128,214.666 229.743,192.95C251.774,180.561 266.735,183.962 385.5,183.551C414.78,183.449 638.389,182.675 751.499,183.568C765.389,183.678 765.347,183.973 775.423,185.853Z" style="fill:rgb(253,199,48);"/>
        <path d="M801.263,219.742C822.023,241.269 819.333,252.691 819.375,321.5C819.395,354.62 819.61,706.424 819.319,735.5C819.089,758.476 811.45,770.807 796.324,784.299C775.139,803.195 744.142,799.436 725.501,799.555C689.901,799.783 689.918,799.548 280.5,799.546C259.318,799.546 249.031,798.941 231.211,786.925C199.144,765.304 204.756,727.278 204.761,718.501C205,264.111 202.779,263.831 206.885,246.595C208.891,238.174 222.175,209.136 256.589,201.851C268.469,199.336 268.598,200.277 389.499,200.095C418.941,200.051 752.242,199.549 757.528,200.214C774.9,202.398 786.715,206.272 801.263,219.742Z" style="fill:rgb(253,253,253);"/>
        <path d="M788.677,222.289C811.771,243.423 808.266,248.648 808.402,314.5C808.472,348.897 809.26,731.87 808.032,744.455C805.917,766.112 782.083,788.903 756.498,789.243C742.632,789.427 301.964,789.232 272.499,789.363C248.012,789.472 215.983,774.142 215.708,735.499C215.445,698.46 216.279,698.515 215.679,272.499C215.665,262.597 212.362,238.626 238.797,219.939C256.606,207.35 262.575,210.786 412.5,210.247C439.54,210.149 616.343,209.513 750.501,210.277C765.328,210.361 775.989,212.859 788.677,222.289Z" style="fill:rgb(13,60,127);"/>
        <path d="M786.698,232.288C800.914,247.337 799.284,250.418 799.247,308.5C798.97,738.201 801.034,738.592 797.126,750.375C790.017,771.815 766.559,780.802 756.513,780.878C718.193,781.166 718.211,779.916 277.502,780.9C274.578,780.906 248.636,783.894 231.887,760.232C223.003,747.682 224.81,746.359 224.629,650.5C224.57,618.984 223.902,265.159 224.991,256.548C227.093,239.928 242.547,222.392 263.449,219.241C275.352,217.447 508.924,218.784 645.499,218.344C755.025,217.991 755.16,217.651 764.401,219.907C776.94,222.968 784.613,230.424 786.698,232.288Z" style="fill:rgb(253,253,253);"/>
        <path d="M381.546,240.902C426.018,231.708 488.207,255.289 490.466,255.13C498.361,254.572 499.335,243.065 501.537,242.901C503.018,242.791 519.075,241.595 520.078,243.711C520.379,244.347 520.244,244.405 520.248,326.502C520.249,338.072 520.465,342.527 519.395,343.323C518.372,344.084 518.282,343.308 503.458,343.676C490.243,233.91 367.034,242.839 344.996,286.778C325.054,326.539 358.614,352.445 363.143,355.941C423.04,402.177 536.097,409.74 525.646,514.514C520.072,570.399 463.998,640.606 332.48,603.569C315.962,598.917 308.111,590.379 297.101,600.04C291.606,604.863 294.524,608.976 288.508,609.057C275.483,609.234 274.201,608.836 274.202,605.5C274.223,498.145 273.334,498.132 274.559,488.883C288.192,488.86 291.099,488.329 291.534,490.491C304.368,554.216 334.35,584.743 384.467,593.711C388.571,594.445 400.136,594.322 401.499,594.307C409.256,594.224 413.479,592.697 414.466,592.34C415.014,592.664 414.406,593.885 416.506,593.544C422.162,592.625 450.702,591.341 465.351,563.423C469.671,555.19 482.989,513.841 446.821,487.067C396.54,449.845 290.606,439.968 283.109,348.55C277.871,284.676 326.856,249.274 381.546,240.902Z" style="fill:rgb(253,199,48);"/>
        <path d="M659.963,378.497C659.953,376.226 659.602,368.399 660.578,367.599C661.08,367.188 668.785,367.191 669.499,367.191C763.397,367.232 764.22,366.83 764.72,368.421C764.952,369.159 764.915,381.034 764.778,381.573C763.822,385.338 734.345,381.794 729.434,405.486C727.371,415.438 730.061,679.993 728.925,691.586C728.616,694.74 705.592,692.951 705.323,692.835C704.417,692.447 541.976,465.339 533.164,452.735C500.648,406.22 494.542,411.661 488.998,404.121C473.64,383.232 458.395,386.036 454.679,383.211C453.805,382.546 453.564,382.362 453.862,369.501C453.867,369.279 453.913,367.301 455.455,367.224C456.606,367.166 552.848,367.111 554.519,367.185C557.54,367.318 559.507,371.427 575.031,391.865C584.884,404.838 691.448,545.138 697.336,554.667C697.441,554.837 699.489,558.151 699.668,555.567C700.138,548.778 699.426,548.824 699.296,470.5C699.2,412.833 702.493,392.804 674.535,385.377C663.693,382.497 660.379,385.259 659.963,378.497Z" style="fill:rgb(20,67,132);"/>
        <path d="M541.125,492.508C540.656,486.894 540.225,486.9 540.491,486.497C541.661,484.73 546.047,491.575 547.969,494.133C553.529,501.532 551.687,502.268 551.637,511.5C551.578,522.38 551.147,602.019 551.774,647.499C552.14,674.101 580.974,675.12 588.464,676.671C590.948,677.185 590.218,683.854 590.201,690.497C590.195,692.866 589.842,693.192 587.496,693.208C577.018,693.28 497.831,693.818 456.514,693.244C454.38,693.214 454.081,690.896 454.579,678.507C454.738,674.536 473.714,677.114 486.447,665.44C504.554,648.841 491.84,600.796 497.589,595.607C522.345,573.266 541.416,553.035 541.125,492.508Z" style="fill:rgb(18,66,131);"/>
        <path d="M503.458,343.676C493.48,347.329 502.854,334.723 483.855,303.284C446.6,241.637 336.135,253.684 347.387,318.518C355.65,366.126 459.375,384.72 500.443,425.558C500.676,425.79 548.945,463.304 526.201,536.402C508.479,593.358 454.338,613.891 428.49,617.438C353.639,627.709 312.656,600.377 303.617,602.914C294.296,605.53 295.668,613.714 291.501,613.645C267.172,613.24 265.696,614.063 265.604,611.494C265.538,609.685 265.311,490.68 265.689,489.566C266.457,487.303 273.861,488.747 274.559,488.883C273.334,498.132 274.223,498.145 274.202,605.5C274.201,608.836 275.483,609.234 288.508,609.057C294.524,608.976 291.606,604.863 297.101,600.04C308.111,590.379 315.962,598.917 332.48,603.569C463.998,640.606 520.072,570.399 525.646,514.514C536.097,409.74 423.04,402.177 363.143,355.941C358.614,352.445 325.054,326.539 344.996,286.778C367.034,242.839 490.243,233.91 503.458,343.676Z" style="fill:rgb(253,236,155);"/>
        <path d="M381.546,240.902C326.856,249.274 277.871,284.676 283.109,348.55C290.606,439.968 396.54,449.845 446.821,487.067C482.989,513.841 469.671,555.19 465.351,563.423C450.702,591.341 422.162,592.625 416.506,593.544C414.406,593.885 415.014,592.664 414.466,592.34C422.05,590.167 449.469,584.352 457.677,556.554C469.17,517.633 438.237,497.037 433.783,494.071C382.95,460.225 270.19,444.131 271.203,343.498C271.72,292.104 305.709,260.475 341.597,247.759C363.487,240.003 368.9,241.147 378.5,239.353C381.239,238.841 380.591,240.416 381.546,240.902Z" style="fill:rgb(253,236,152);"/>
    </g>
</svg>
