<?xml version="1.0" encoding="UTF-8" standalone="no"?>
<!DOCTYPE svg PUBLIC "-//W3C//DTD SVG 1.1//EN" "http://www.w3.org/Graphics/SVG/1.1/DTD/svg11.dtd">
<svg width="100%" height="100%" viewBox="0 0 487 637" version="1.1" xmlns="http://www.w3.org/2000/svg" xmlns:xlink="http://www.w3.org/1999/xlink" xml:space="preserve" xmlns:serif="http://www.serif.com/" style="fill-rule:evenodd;clip-rule:evenodd;stroke-linejoin:round;stroke-miterlimit:2;">
    <g id="Background" transform="matrix(1.5,0,0,1.5,-524,-154)">
        <path d="M413.947,476.479C398.554,287.988 400.432,287.84 398.288,271.538C397.753,267.472 385.772,271.516 382.681,268.322C380.522,266.09 357.594,242.396 355.851,240.282C354.324,238.43 357.835,238.861 372.497,238.888C430.398,238.998 666.532,238.742 666.925,239.047C668.909,240.584 666.859,240.647 664.839,242.804C653.444,254.968 653.591,254.996 642.189,267.198C637.328,272.399 627.519,268.001 625.461,270.475C625.04,270.982 620.675,334.735 619.814,345.53C619.424,350.423 610.328,478.104 609.591,479.56C609.1,480.531 608.626,480.073 422.498,480.303C416.912,480.31 414.769,482.034 413.947,476.479Z" style="fill:rgb(243,183,22);"/>
        <path d="M416.036,342.536C414.821,330.502 414.798,325.381 413.851,314.466C413.2,306.956 411.365,301.259 414.992,296.922C469.108,232.23 564.646,242.381 609.009,296.878C611.061,299.399 611.76,300.257 608.528,337.502C606.436,361.602 601,450.294 599.521,451.533C599.023,451.951 425.73,452.451 424.744,451.285C423.842,450.219 418.262,366.519 416.036,342.536Z" style="fill:rgb(2,66,132);"/>
        <path d="M431.896,429.477C431.35,423.082 431.604,423.117 425.696,349.483C421.984,303.214 421.773,302.786 423.655,300.63C472.422,244.782 550.788,255.537 587.232,287.818C602.494,301.338 602.116,302.283 601.761,306.526C591.383,430.741 594.065,431 591.899,441.617C591.55,443.327 590.71,443.099 555.5,443.092C435.141,443.067 435.154,443.126 434.403,442.966C432.055,442.467 432.443,436.165 431.896,429.477Z" style="fill:white;"/>
        <path d="M662.5,232.058C597.565,231.236 383.743,231.9 359.503,231.975C356.284,231.985 354.967,232.738 354.911,229.495C354.802,223.149 354.482,216.435 356.457,216.302C357.074,216.26 666.564,215.825 667.488,216.517C668.661,217.395 668.234,227.428 668.2,229.491C668.136,233.332 666.274,231.705 662.5,232.058Z" style="fill:rgb(3,66,132);"/>
        <path d="M385.503,501.095C381.458,500.919 381.409,501.129 381.141,500.905C380.016,499.966 380.517,499.261 392.722,486.722C394.537,484.857 395.403,485.008 407.502,484.994C421.182,484.978 556.272,484.824 578.499,485.065C627.771,485.6 628.427,484.352 630.943,487.075C642.689,499.785 643.616,500.454 642.333,501.122C642.01,501.29 406.049,501.111 385.503,501.095Z" style="fill:rgb(3,66,133);"/>
        <path d="M653.941,510.506C653.901,518.434 654.43,518.624 653.587,519.562C652.378,520.91 511.092,519.949 420.501,520.217C416.582,520.229 373.698,520.355 371.515,520.23C371.307,520.218 369.636,520.122 369.582,518.49C369.254,508.537 369.194,506.196 372.497,506.184C428.426,505.974 629.182,506.167 651.503,506.188C654.59,506.191 653.872,507.466 653.941,510.506Z" style="fill:rgb(243,182,18);"/>
        <path d="M489.595,292.151C487.851,291.836 473.894,289.313 467.966,296.929C454.855,313.774 487.046,325.706 501.747,335.087C534.035,355.692 519.017,384.967 500.379,392.201C479.089,400.464 459.247,389.038 457.477,388.993C452.164,388.859 446.236,401.509 446.165,389.496C446.002,362.071 446.476,361.697 447.475,361.423C452.427,360.065 451.436,362.814 453.405,367.54C464.467,394.088 492.131,391.379 499.031,381.173C513.123,360.329 476.325,347.857 463.742,339.142C430.406,316.054 451.034,287.545 474.549,284.975C490.446,283.237 501.084,288.574 501.446,288.683C506.324,290.159 508.041,286.861 509.422,286.306C513.647,284.607 512.865,288.642 512.857,309.505C512.856,312.35 512.324,312.741 509.504,312.448C502.89,311.759 511.524,300.342 489.595,292.151Z" style="fill:rgb(243,182,21);"/>
        <path d="M565.866,386.014C566.99,385.515 567.328,385.69 567.279,384.468C566.711,370.318 567.494,352.374 566.908,347.443C565.46,335.273 558.982,335.375 556.436,334.743C552.599,333.79 554.636,331.047 554.84,330.772C555.651,329.679 584.282,329.654 585.114,330.802C587.718,334.394 580.62,335.581 578.756,336.854C574.948,339.455 576.045,340.663 575.896,413.501C575.882,420.467 577.41,423.744 570.521,423.058C566.437,422.652 553.295,400.759 529.597,370.426C522.313,361.102 523.556,360.465 521.622,353.462C516.65,335.458 492.999,330.019 504.472,330.067C524.737,330.152 525.633,329.299 528.05,332.834C537.3,346.358 559.847,376.292 565.866,386.014Z" style="fill:rgb(3,67,134);"/>
        <path d="M453.945,188.58C457.488,171.791 460.474,163.891 471.055,151.121C480.235,140.043 487.573,138.273 488.511,135.504C491.176,127.633 498.38,139.76 497.94,142.587C497.633,144.554 465.559,155.36 462.274,199.482C461.727,206.836 464.86,205.389 471.5,208.5C476.714,210.942 469.65,210.384 446.49,210.599C439.474,210.664 450.876,205.524 451.254,205.192C452.265,204.304 452.621,203.99 453.945,188.58Z" style="fill:rgb(3,66,132);"/>
        <path d="M527.853,124.493C526.874,136.319 520.775,136.608 504.444,146.402C497.869,150.345 506.239,137.4 493.395,130.733C491.557,129.778 491.418,130.296 489.603,129.359C487.187,128.112 501.093,114.324 504.574,112.652C515.464,107.422 526.458,111.564 527.853,124.493Z" style="fill:rgb(3,65,131);"/>
        <path d="M502.503,422.956C498.816,422.545 496.867,422.89 498.179,419.361C499.444,415.96 507.941,420.945 509.213,406.47C510.216,395.057 507.193,393.533 512.213,389.157C519.778,382.562 518.549,378.204 520.505,379.494C522.971,381.12 514.998,412.569 526.62,417.217C530.681,418.841 531.61,418.031 532.087,420.53C532.7,423.738 528.834,423.006 502.503,422.956Z" style="fill:rgb(5,69,136);"/>
    </g>
</svg>
